<?xml version="1.0" standalone="no"?>
<!DOCTYPE svg PUBLIC "-//W3C//DTD SVG 20010904//EN"
 "http://www.w3.org/TR/2001/REC-SVG-20010904/DTD/svg10.dtd">
<svg version="1.0" xmlns="http://www.w3.org/2000/svg"
 width="768.000000pt" height="768.000000pt" viewBox="0 0 768.000000 768.000000"
 preserveAspectRatio="xMidYMid meet">
<metadata>
Created by potrace 1.14, written by Peter Selinger 2001-2017
</metadata>
<g transform="translate(0.000000,768.000000) scale(0.100000,-0.100000)"
fill="#000000" stroke="none">
<path d="M4906 6833 c-1 -1 -486 -3 -1077 -3 l-1074 -1 -1 -97 c0 -121 -18
-178 -127 -402 -44 -91 -118 -244 -165 -340 -46 -96 -119 -247 -162 -335 -43
-88 -126 -259 -185 -380 -59 -121 -138 -283 -175 -360 -37 -77 -109 -225 -160
-330 -51 -104 -123 -253 -160 -330 -65 -134 -122 -252 -352 -725 -58 -118
-128 -263 -156 -321 -29 -58 -52 -111 -52 -118 0 -6 -4 -11 -10 -11 -5 0 -10
-4 -10 -9 0 -5 -48 -107 -106 -227 -58 -121 -127 -262 -152 -314 -53 -111
-115 -210 -164 -262 -32 -34 -33 -37 -14 -40 31 -5 4855 -2 4859 3 2 2 43 67
92 144 49 77 93 142 97 143 5 2 8 8 8 13 0 5 22 41 48 81 27 40 86 132 132
203 46 72 126 195 178 274 52 80 96 150 99 156 2 8 -34 2 -99 -17 -103 -29
-387 -96 -437 -103 -14 -2 -46 -8 -71 -13 -25 -6 -63 -13 -85 -17 -22 -3 -67
-10 -100 -15 -108 -16 -129 -19 -190 -25 -33 -3 -78 -8 -100 -11 -59 -7 -356
-12 -1155 -19 -393 -4 -764 -7 -825 -8 -71 -1 -109 2 -108 9 1 6 43 95 92 198
50 104 91 189 91 191 0 1 41 87 91 191 50 104 121 250 156 324 36 74 80 167
99 207 l35 71 741 0 c603 0 743 3 753 14 7 7 28 42 47 78 19 36 68 124 108
195 40 72 87 155 103 185 16 30 33 60 37 65 4 6 22 37 40 70 18 33 42 75 52
94 10 18 17 35 14 38 -4 5 -175 8 -1050 18 -258 3 -471 7 -474 10 -3 2 33 82
80 177 47 95 116 236 153 313 37 77 108 223 158 325 49 102 93 194 98 205 5
11 13 27 18 35 5 8 20 37 34 65 l26 50 123 1 c68 1 364 5 658 9 581 8 602 8
735 1 385 -21 860 -142 1169 -297 43 -22 82 -37 86 -32 4 4 67 141 140 303
182 402 186 411 241 529 27 57 49 108 49 115 0 6 7 20 15 30 8 11 15 23 15 26
0 6 -2768 9 -2774 3z"/>
<path d="M5905 2414 c-42 -22 -66 -58 -70 -105 -6 -82 52 -143 136 -142 78 1
129 56 129 138 0 92 -110 153 -195 109z m120 -32 c53 -44 54 -127 2 -170 -20
-17 -77 -18 -108 -3 -67 33 -64 153 5 181 34 14 80 11 101 -8z"/>
<path d="M5940 2361 c-25 -6 -28 -21 -21 -113 2 -29 31 -22 31 7 0 16 6 25 15
25 9 0 20 -11 25 -25 5 -14 16 -25 25 -25 18 0 18 1 5 35 -7 18 -7 33 1 47 18
34 -28 62 -81 49z m50 -35 c0 -8 -7 -17 -16 -20 -23 -9 -24 -8 -24 14 0 13 7
20 20 20 11 0 20 -6 20 -14z"/>
<path d="M357 1432 c-20 -3 -32 -13 -46 -40 -10 -20 -36 -68 -58 -107 -22 -38
-55 -97 -73 -130 -18 -33 -61 -109 -95 -170 -95 -168 -89 -152 -52 -150 35 3
166 15 210 20 15 2 66 7 115 10 48 4 94 9 104 10 9 2 51 6 95 10 43 4 92 8
108 9 17 2 68 7 115 11 47 4 96 9 110 10 14 2 59 6 100 10 41 3 89 8 105 10
17 2 66 7 110 10 44 4 96 9 115 10 19 2 69 7 110 10 41 3 89 8 105 10 17 2 59
6 95 10 36 3 88 8 115 10 28 3 77 7 110 10 55 5 79 7 205 20 42 4 70 7 220 20
30 3 75 7 100 10 48 4 175 16 225 20 39 3 159 15 210 20 22 2 70 7 106 10 36
4 84 8 105 10 21 2 71 6 109 10 39 3 88 7 110 10 22 2 74 7 115 10 41 3 89 8
107 11 18 2 63 6 100 9 37 3 88 8 113 10 25 3 70 7 100 10 30 3 78 7 105 10
57 6 173 16 225 20 19 1 58 5 85 9 28 3 84 8 125 11 41 3 93 8 115 11 22 3 63
7 90 9 119 9 193 16 240 21 27 3 70 8 95 10 141 12 289 25 325 30 17 2 64 6
105 9 41 3 89 8 105 10 17 2 64 7 105 10 41 4 77 9 79 11 2 2 -38 4 -90 5 -52
0 -206 2 -344 4 -137 2 -432 6 -655 9 -223 3 -562 8 -755 11 -192 3 -501 7
-685 10 -184 3 -497 7 -695 10 -392 6 -734 11 -1405 20 -239 4 -464 7 -500 8
-36 1 -77 1 -93 -1z"/>
</g>
</svg>
